<?xml version="1.0" encoding="utf-8"?>
<!-- Generator: Adobe Illustrator 24.1.3, SVG Export Plug-In . SVG Version: 6.00 Build 0)  -->
<svg version="1.1" id="Layer_1" xmlns="http://www.w3.org/2000/svg" xmlns:xlink="http://www.w3.org/1999/xlink" x="0px" y="0px"
	 viewBox="0 0 167.3 11.1" style="enable-background:new 0 0 167.3 11.1;" xml:space="preserve">
<style type="text/css">
	.st0{fill:#8CADD8;}
</style>
<g id="Layer_2_1_">
	<g id="Layer_1-2">
		<path class="st0" d="M5.9,2.9H3.7v6H2.2v-6H0V1.7h5.9V2.9z"/>
		<path class="st0" d="M8.2,4.2c0.3-0.4,0.9-0.7,1.4-0.7c1.2,0,1.8,0.7,1.8,2V9H10V5.6c0-0.2-0.1-0.5-0.2-0.7
			C9.6,4.7,9.4,4.7,9.1,4.7c-0.4,0-0.7,0.2-0.9,0.5V9H6.8V1.4h1.4V4.2z"/>
		<path class="st0" d="M15.2,9c-0.7,0-1.4-0.2-1.9-0.7s-0.8-1.2-0.7-1.9V6.3c0-0.5,0.1-1,0.3-1.5c0.2-0.4,0.5-0.8,0.9-1
			s0.8-0.4,1.3-0.3c0.7,0,1.3,0.2,1.7,0.7c0.5,0.6,0.7,1.3,0.6,2v0.5H14c0,0.3,0.2,0.6,0.4,0.8c0.2,0.2,0.6,0.3,0.9,0.3
			c0.5,0,1-0.2,1.3-0.6L17.3,8c-0.2,0.3-0.5,0.6-0.9,0.7C16,8.9,15.6,9,15.2,9z M15,4.6c-0.3,0-0.5,0.1-0.7,0.3S14,5.4,14,5.7h2V5.6
			c0-0.3-0.1-0.5-0.3-0.7S15.3,4.6,15,4.6z"/>
		<path class="st0" d="M23.2,1.7L25,7l1.9-5.3h2v7.2h-1.5v-2l0.1-3.4l-2,5.4h-1l-2-5.4l0.1,3.4v2h-1.5V1.7H23.2z"/>
		<path class="st0" d="M33.3,8.9c-0.1-0.2-0.1-0.3-0.1-0.5C32.9,8.8,32.4,9,31.8,9c-0.5,0-0.9-0.1-1.3-0.4C30.2,8.3,30,7.9,30,7.4
			s0.2-1,0.6-1.3c0.6-0.3,1.2-0.5,1.9-0.4h0.7V5.4c0-0.2-0.1-0.4-0.2-0.6c-0.2-0.2-0.4-0.2-0.6-0.2c-0.2,0-0.4,0-0.6,0.2
			c-0.1,0.1-0.2,0.3-0.2,0.5h-1.4c0-0.3,0.1-0.6,0.3-0.9c0.2-0.3,0.5-0.5,0.8-0.6c0.4-0.2,0.8-0.2,1.2-0.2c0.6,0,1.1,0.1,1.6,0.5
			c0.4,0.4,0.6,0.9,0.6,1.4v2.2c0,0.4,0,0.8,0.2,1.2V9L33.3,8.9L33.3,8.9z M32.2,7.9c0.2,0,0.4,0,0.6-0.1c0.2-0.1,0.3-0.2,0.4-0.4
			V6.5h-0.5c-0.7,0-1.1,0.3-1.1,0.8v0.1c0,0.2,0.1,0.3,0.2,0.4C31.8,7.9,32,8,32.2,7.9z"/>
		<path class="st0" d="M35.9,2.2c0-0.2,0.1-0.4,0.2-0.5c0.2-0.1,0.4-0.2,0.6-0.2c0.2,0,0.4,0.1,0.6,0.2c0.3,0.3,0.3,0.8,0,1.1
			C37.1,2.9,36.9,3,36.7,3c-0.2,0-0.4-0.1-0.6-0.2C35.9,2.6,35.9,2.4,35.9,2.2z M37.4,8.9H36V3.5h1.4V8.9z"/>
		<path class="st0" d="M40.1,3.6v0.6c0.4-0.5,0.9-0.7,1.5-0.7c0.5,0,0.9,0.1,1.3,0.5c0.3,0.4,0.5,1,0.4,1.5V9h-1.4V5.6
			c0-0.2,0-0.5-0.2-0.7S41.3,4.7,41,4.7c-0.4,0-0.7,0.2-0.9,0.5V9h-1.4V3.6H40.1z"/>
		<path class="st0" d="M47.1,9c-0.7,0-1.4-0.2-1.9-0.7s-0.8-1.2-0.7-1.9V6.3c0-0.5,0.1-1,0.3-1.5c0.2-0.4,0.5-0.8,0.9-1
			s0.8-0.4,1.3-0.3c0.7,0,1.3,0.2,1.7,0.7c0.5,0.6,0.7,1.3,0.6,2v0.5h-3.4c0,0.3,0.2,0.6,0.4,0.8c0.2,0.2,0.6,0.3,0.9,0.3
			c0.5,0,1-0.2,1.3-0.6L49.2,8c-0.2,0.3-0.5,0.6-0.9,0.7C48,8.9,47.6,9,47.1,9z M47,4.6c-0.3,0-0.5,0.1-0.7,0.3S46,5.4,46,5.7h2V5.6
			c0-0.3-0.1-0.5-0.3-0.7S47.3,4.6,47,4.6z"/>
		<path class="st0" d="M58.8,6.5c0,0.7-0.3,1.4-0.8,1.8C57.4,8.8,56.7,9,56,9c-0.8,0-1.6-0.3-2.2-0.9c-0.6-0.7-0.9-1.6-0.8-2.6V5.1
			c0-0.6,0.1-1.3,0.4-1.8c0.2-0.5,0.6-0.9,1-1.2C55.5,1.5,57,1.6,58,2.3c0.5,0.5,0.8,1.2,0.9,1.9h-1.5c0-0.4-0.1-0.7-0.4-1
			c-0.3-0.2-0.6-0.3-1-0.3s-0.9,0.2-1.1,0.5c-0.3,0.5-0.4,1.1-0.4,1.7v0.5c0,0.6,0.1,1.2,0.4,1.7c0.2,0.4,0.7,0.6,1.1,0.5
			c0.4,0,0.7-0.1,1-0.3c0.3-0.3,0.4-0.6,0.4-1L58.8,6.5z"/>
		<path class="st0" d="M59.7,6.2c0-0.5,0.1-1,0.3-1.4s0.5-0.8,0.9-1s0.9-0.4,1.3-0.3c0.7,0,1.3,0.2,1.8,0.7s0.8,1.1,0.8,1.8v0.4
			c0,0.7-0.2,1.4-0.7,2c-1,1-2.7,1-3.7,0C59.9,7.7,59.6,7,59.7,6.2L59.7,6.2z M61.1,6.3c0,0.4,0.1,0.8,0.3,1.2
			c0.2,0.3,0.5,0.4,0.8,0.4s0.6-0.1,0.8-0.4c0.2-0.4,0.3-0.8,0.3-1.3c0-0.4-0.1-0.8-0.3-1.2c-0.2-0.3-0.5-0.4-0.8-0.4
			S61.6,4.7,61.4,5C61.2,5.4,61.1,5.9,61.1,6.3z"/>
		<path class="st0" d="M67.2,3.6l0.1,0.6c0.4-0.5,0.9-0.7,1.5-0.7c0.6-0.1,1.2,0.3,1.4,0.8c0.4-0.5,1-0.8,1.6-0.8
			c0.5,0,1,0.2,1.3,0.5c0.3,0.4,0.5,1,0.4,1.5v3.4h-1.4V5.5c0-0.2,0-0.5-0.2-0.7s-0.4-0.2-0.6-0.2c-0.4,0-0.8,0.2-0.9,0.6v3.7H69
			V5.5c0-0.2,0-0.5-0.2-0.7s-0.4-0.2-0.6-0.2c-0.4,0-0.7,0.2-0.9,0.5v3.8h-1.5V3.5h1.4V3.6z"/>
		<path class="st0" d="M76.2,3.6v0.6c0.4-0.5,1-0.7,1.6-0.7s1.2,0.3,1.4,0.8c0.4-0.5,1-0.8,1.6-0.8c0.5,0,1,0.2,1.3,0.5
			c0.3,0.4,0.5,1,0.4,1.5v3.4h-1.4V5.5c0-0.2,0-0.5-0.2-0.7s-0.4-0.2-0.6-0.2c-0.4,0-0.8,0.2-0.9,0.6v3.7H78V5.5
			c0-0.2,0-0.5-0.2-0.7s-0.4-0.2-0.6-0.2c-0.4,0-0.7,0.2-0.9,0.5v3.8h-1.5V3.5h1.4V3.6z"/>
		<path class="st0" d="M87.1,8.4c-0.4,0.4-0.9,0.7-1.5,0.6c-0.5,0-1-0.1-1.3-0.5S83.8,7.6,83.8,7V3.5h1.4V7c0,0.6,0.2,0.8,0.8,0.8
			c0.4,0,0.8-0.2,1-0.5V3.5h1.4v5.4h-1.3V8.4z"/>
		<path class="st0" d="M91.1,3.6v0.6c0.4-0.5,0.9-0.7,1.5-0.7c0.5,0,0.9,0.1,1.3,0.5c0.3,0.4,0.5,1,0.4,1.5V9h-1.4V5.6
			c0-0.2,0-0.5-0.2-0.7S92.3,4.7,92,4.7c-0.4,0-0.7,0.2-0.9,0.5V9h-1.4V3.6H91.1z"/>
		<path class="st0" d="M95.6,2.2c0-0.2,0.1-0.4,0.2-0.5c0.2-0.1,0.4-0.2,0.6-0.2s0.4,0.1,0.6,0.3c0.3,0.3,0.3,0.7,0,1
			C96.8,2.9,96.6,3,96.4,3S96,2.9,95.8,2.8C95.7,2.6,95.6,2.4,95.6,2.2z M97.2,8.9h-1.4V3.5h1.4V8.9z"/>
		<path class="st0" d="M100.2,2.2v1.3h0.9v1h-0.9v2.7c0,0.1,0,0.3,0.1,0.4s0.3,0.2,0.4,0.1c0.1,0,0.3,0,0.4,0v1.1
			c-0.3,0.1-0.6,0.1-0.9,0.1c-0.8,0.1-1.4-0.4-1.5-1.2c0-0.1,0-0.2,0-0.3V4.5H98V3.4h0.8V2.1h1.4V2.2z"/>
		<path class="st0" d="M104.2,6.9l1-3.3h1.5l-2.2,6.2l-0.1,0.3c-0.3,0.7-0.9,1.1-1.6,1.1c-0.2,0-0.4,0-0.6-0.1V10h0.2
			c0.2,0,0.4,0,0.6-0.1c0.1-0.1,0.3-0.2,0.3-0.4l0.2-0.4l-1.9-5.4h1.6L104.2,6.9z"/>
		<path class="st0" d="M110.3,8.9V1.7h2.5c0.7,0,1.4,0.1,2,0.5c0.5,0.4,0.7,0.9,0.7,1.5c0,0.3-0.1,0.7-0.3,0.9
			c-0.2,0.3-0.5,0.5-0.8,0.6c0.4,0.1,0.7,0.3,0.9,0.6c0.2,0.3,0.3,0.6,0.3,1c0.1,0.6-0.2,1.2-0.6,1.6c-0.6,0.4-1.2,0.6-1.9,0.6
			L110.3,8.9L110.3,8.9z M111.8,4.7h1.1c0.8,0,1.1-0.3,1.1-0.9c0-0.3-0.1-0.5-0.3-0.7c-0.3-0.2-0.6-0.2-0.9-0.2h-1L111.8,4.7z
			 M111.8,5.8v2h1.2c0.3,0,0.6-0.1,0.8-0.2c0.2-0.2,0.3-0.4,0.3-0.7c0-0.7-0.3-1-1-1L111.8,5.8z"/>
		<path class="st0" d="M120,8.9c-0.1-0.2-0.1-0.3-0.2-0.5C119.5,8.8,119,9,118.5,9s-0.9-0.1-1.3-0.4c-0.3-0.3-0.5-0.7-0.5-1.2
			s0.2-1,0.6-1.3c0.5-0.3,1.2-0.5,1.8-0.4h0.7V5.4c0-0.2-0.1-0.4-0.2-0.6c-0.2-0.2-0.4-0.2-0.6-0.2s-0.4,0-0.6,0.2
			c-0.1,0.1-0.2,0.3-0.2,0.5h-1.4c0-0.3,0.1-0.6,0.3-0.9c0.2-0.3,0.5-0.5,0.8-0.6c0.4-0.2,0.8-0.2,1.2-0.2c0.6,0,1.1,0.1,1.6,0.5
			c0.4,0.4,0.6,0.9,0.6,1.4v2.2c0,0.4,0.1,0.8,0.2,1.2V9L120,8.9L120,8.9z M118.8,7.9c0.2,0,0.4,0,0.6-0.1s0.3-0.2,0.4-0.4V6.5h-0.5
			c-0.7,0-1.1,0.3-1.2,0.8v0.1c0,0.2,0.1,0.3,0.2,0.4S118.6,8,118.8,7.9L118.8,7.9z"/>
		<path class="st0" d="M123.8,3.6l0.1,0.6c0.4-0.5,0.9-0.7,1.5-0.7c0.5,0,0.9,0.1,1.3,0.5c0.3,0.4,0.5,1,0.4,1.5V9h-1.4V5.6
			c0-0.2,0-0.5-0.2-0.7s-0.4-0.2-0.7-0.2c-0.4,0-0.7,0.2-0.9,0.5V9h-1.4V3.6H123.8z"/>
		<path class="st0" d="M130.3,6.8l-0.5,0.5v1.6h-1.4V1.3h1.4v4.2l0.3-0.3l1.4-1.6h1.7l-1.9,2.2l2.1,3.1h-1.6L130.3,6.8z"/>
		<path class="st0" d="M141.2,6h-2.9v3h-1.5V1.7h4.7v1.2h-3.2v1.9h2.9V6z"/>
		<path class="st0" d="M145.4,8.9c-0.1-0.2-0.1-0.3-0.1-0.5C145,8.8,144.5,9,143.9,9c-0.5,0-0.9-0.1-1.3-0.4
			c-0.3-0.3-0.5-0.7-0.5-1.2s0.2-1,0.6-1.3c0.5-0.3,1.2-0.5,1.8-0.5h0.7V5.3c0-0.2-0.1-0.4-0.2-0.6c-0.2-0.2-0.4-0.2-0.6-0.2
			c-0.2,0-0.4,0-0.6,0.2c-0.1,0.1-0.2,0.3-0.2,0.5h-1.4c0-0.3,0.1-0.6,0.3-0.9c0.2-0.3,0.5-0.5,0.8-0.6c0.4-0.2,0.8-0.2,1.2-0.2
			c0.6,0,1.1,0.1,1.6,0.5c0.4,0.4,0.6,0.9,0.6,1.4v2.3c0,0.4,0,0.8,0.2,1.2V9L145.4,8.9L145.4,8.9z M144.3,7.9c0.2,0,0.4,0,0.6-0.1
			c0.2-0.1,0.3-0.2,0.4-0.4V6.5h-0.5c-0.7,0-1.1,0.3-1.1,0.8v0.1c0,0.2,0.1,0.3,0.2,0.4C143.9,7.9,144.1,8,144.3,7.9z"/>
		<path class="st0" d="M149.3,3.6v0.6c0.4-0.5,0.9-0.7,1.5-0.7c0.6-0.1,1.2,0.3,1.4,0.8c0.4-0.5,1-0.8,1.6-0.8c0.5,0,1,0.1,1.3,0.5
			s0.5,1,0.4,1.5v3.4h-1.4V5.5c0-0.2,0-0.5-0.2-0.7s-0.4-0.2-0.6-0.2c-0.4,0-0.8,0.2-0.9,0.6v3.7H151V5.5c0-0.2,0-0.5-0.2-0.7
			s-0.4-0.2-0.6-0.2c-0.4,0-0.7,0.2-0.9,0.5v3.8H148V3.5h1.3V3.6z"/>
		<path class="st0" d="M157,2.2c0-0.2,0.1-0.4,0.2-0.5c0.3-0.3,0.8-0.3,1.2,0c0.1,0.1,0.2,0.3,0.2,0.5s-0.1,0.4-0.2,0.5
			c-0.2,0.1-0.4,0.2-0.6,0.2c-0.2,0-0.4-0.1-0.6-0.2C157.1,2.6,157,2.4,157,2.2z M158.5,8.9h-1.4V3.5h1.4V8.9z"/>
		<path class="st0" d="M161.4,8.9H160V1.3h1.4V8.9z"/>
		<path class="st0" d="M164.8,6.9l1-3.3h1.5l-2.2,6.2l-0.1,0.3c-0.3,0.7-0.9,1.1-1.6,1.1c-0.2,0-0.4,0-0.6-0.1V10h0.2
			c0.2,0,0.4,0,0.6-0.1c0.1-0.1,0.3-0.2,0.3-0.4l0.2-0.4l-1.9-5.4h1.5L164.8,6.9z"/>
	</g>
</g>
</svg>
