<?xml version="1.0" encoding="utf-8"?>
<!-- Generator: Adobe Illustrator 24.1.3, SVG Export Plug-In . SVG Version: 6.00 Build 0)  -->
<svg version="1.1" id="Layer_1" xmlns="http://www.w3.org/2000/svg" xmlns:xlink="http://www.w3.org/1999/xlink" x="0px" y="0px"
	 viewBox="0 0 54.92 53.56" style="enable-background:new 0 0 54.92 53.56;" xml:space="preserve">
<style type="text/css">
	.st0{fill:#8DADD8;}
	.st1{fill:#303B50;}
	.st2{fill:#EECC7B;}
</style>
<path class="st0" d="M52.58,2.41h-27.5c-12,0-21.7,9.7-21.8,21.8v27.4h27.4c12,0,21.7-9.7,21.8-21.7V2.41H52.58z"/>
<path class="st1" d="M25.08,5.31c-10.5,0-19,8.5-19,19v24.8h24.7c10.5,0,19-8.5,19-19V5.31H25.08z M24.28,21.61
	c0.5,0,1.1,0.1,1.5,0.4c1.1,0.6,2.4,1,3.6,1.1s2.3,0.1,3.5-0.2c0.1,0,1.7-0.5,0.7-0.9c-0.3-0.1-0.6-0.2-0.8-0.2c0,0-0.2-0.1,0-0.1
	c1.2,0.1,2.3,0.4,3.4,0.8c0.4,0.2,1,0.4,1,1c0,0.3-0.1,0.6-0.1,0.9c-0.7,2.6-4.6,5.9-9.5,5.9c-5.5,0-9.4-4.2-9.4-6.8
	C18.18,22.51,20.78,21.91,24.28,21.61L24.28,21.61z M41.38,32.61c-0.1,0.3-0.3,0.5-0.5,0.8c-0.9,1.3-2.1,2.3-3.4,3.2
	c-1.4,0.9-2.8,1.5-4.4,2c-1.8,0.5-3.6,0.8-5.5,0.8c-8,0-13.4-5.2-13.4-8.2c0-0.9,2.1-1.6,6-1.9c0.9-0.1,1.8,0.1,2.5,0.6
	c2.1,1.2,4.4,1.9,6.8,2c2.1,0.1,4.1,0,6.2-0.4c0.3-0.1,1-0.2,1.7-0.4l0.2-0.1l0.3-0.1c1.8-0.6-1.5-1.4-1.5-1.4l0,0h-0.2
	c0,0-0.1,0-0.2-0.1s0.1,0,0.1,0c0.9,0.1,1.9,0.2,2.8,0.4c0.8,0.1,1.6,0.4,2.3,0.8c0.1,0.1,0.3,0.2,0.3,0.4l0,0v0.1
	C41.68,31.71,41.58,32.21,41.38,32.61L41.38,32.61z"/>
<circle class="st2" cx="27.98" cy="17.81" r="4.2"/>
</svg>
