<?xml version="1.0" encoding="utf-8"?>
<!-- Generator: Adobe Illustrator 24.1.3, SVG Export Plug-In . SVG Version: 6.00 Build 0)  -->
<svg version="1.1" id="Layer_1" xmlns="http://www.w3.org/2000/svg" xmlns:xlink="http://www.w3.org/1999/xlink" x="0px" y="0px"
	 viewBox="0 0 54.92 53.56" style="enable-background:new 0 0 54.92 53.56;" xml:space="preserve">
<style type="text/css">
	.st0{fill:#8DADD8;}
	.st1{fill:#303B50;}
	.st2{fill:#EECC7B;}
</style>
<path class="st0" d="M52.11,2.13h-27.5c-12,0-21.8,9.8-21.8,21.8l0,0v27.5h27.5c12,0,21.8-9.8,21.8-21.8V2.13z"/>
<path class="st1" d="M24.61,5.13c-10.5,0-19,8.5-19,19c0,0,0,0,0,0.1v24.7h24.7c10.5,0,19-8.5,19-19V5.13H24.61z"/>
<path class="st2" d="M21.21,17.73c-1.3,1.6-2.5,3.2-3.7,4.9c-0.2,0.3-0.1,0.6,0.1,0.9c3.5,2.8,6.8,6,9.6,9.5
	c0.2,0.3,0.7,0.3,0.9,0.1l0.1-0.1c1.1-1.4,2.3-2.8,3.6-4.1c0.2-0.2,0.2-0.6,0.1-0.8c-2.9-3.8-6.2-7.3-9.8-10.4
	C21.91,17.43,21.41,17.43,21.21,17.73L21.21,17.73z"/>
<path class="st0" d="M33.31,17.63c-1.5,1.3-3,2.7-4.3,4.2c-0.2,0.2-0.2,0.6,0,0.8c3.4,4.1,6.5,8.5,9.3,13.1c0.2,0.3,0.6,0.4,0.9,0.2
	c0,0,0,0,0.1,0c1.3-1.2,2.7-2.3,4.2-3.3c0.3-0.2,0.3-0.5,0.2-0.8c-2.6-5-5.7-9.8-9.3-14.1C34.01,17.43,33.61,17.43,33.31,17.63z"/>
<path class="st0" d="M16.01,24.73c-1.5,2.3-2.9,4.7-4.1,7.1c-0.1,0.3,0,0.6,0.2,0.8c1.4,1,2.8,2.1,4.1,3.3c0.3,0.2,0.7,0.2,1-0.1
	c0,0,0,0,0-0.1c1.2-2.3,2.6-4.5,4.2-6.6c0.2-0.3,0.1-0.6-0.1-0.8c-1.4-1.3-2.8-2.6-4.3-3.7C16.71,24.33,16.31,24.33,16.01,24.73
	C16.01,24.63,16.01,24.73,16.01,24.73z"/>
</svg>
