<?xml version="1.0" encoding="utf-8"?>
<!-- Generator: Adobe Illustrator 24.1.3, SVG Export Plug-In . SVG Version: 6.00 Build 0)  -->
<svg version="1.1" id="Layer_1" xmlns="http://www.w3.org/2000/svg" xmlns:xlink="http://www.w3.org/1999/xlink" x="0px" y="0px"
	 viewBox="0 0 54.92 53.56" style="enable-background:new 0 0 54.92 53.56;" xml:space="preserve">
<style type="text/css">
	.st0{fill:#8DADD8;}
	.st1{fill:#EECC7B;}
	.st2{fill:#303B50;}
</style>
<path class="st0" d="M24.61,2.47c-12,0-21.8,9.8-21.8,21.8v27.5h27.5c12,0,21.8-9.8,21.8-21.8V2.47H24.61z"/>
<polygon class="st1" points="18.91,22.37 27.01,20.87 33.51,22.67 31.11,35.17 27.01,36.07 21.41,35.07 "/>
<path class="st2" d="M24.61,5.37c-10.5,0-19.1,8.5-19.1,19l0,0v24.8h17.9v-1.7c0-1.4-0.7-2.7-1.9-3.4l-0.2-0.1
	c-0.2-0.2-0.4-0.4-0.4-0.7v-1.4l5.9,1l5.9-1v1.4c0,0.3-0.1,0.6-0.4,0.7l-0.1,0.1c-1.2,0.7-1.9,2-1.9,3.4v1.7l0,0
	c10.5,0,19-8.5,19-19V5.37H24.61z M17.71,16.97c0-0.3,0.2-0.5,0.4-0.6l2.7-1.1c0.8-0.3,1.4-1,1.7-1.9c0.1-0.4,0.4-0.8,0.8-1l2.5-1.1
	c-0.5-0.4-0.8-0.9-0.8-1.6c0-1.1,0.9-2,2.1-1.9c0.4,0,0.7,0.1,1.1,0.3c0.2,0.1,0.3,0.3,0.4,0.4c0.6,0.9,0.4,2.1-0.4,2.7l2.5,1.1
	c0.4,0.2,0.7,0.6,0.8,1c0.2,0.9,0.8,1.6,1.7,1.9l2.7,1.1c0.3,0.1,0.4,0.4,0.4,0.6v1l-9.1-1.9h-0.1l-9.2,1.9L17.71,16.97z
	 M35.31,39.17c0,0.6-0.4,1-0.9,1.1l-7.4,1.4l-7.4-1.4c-0.6-0.1-1-0.6-1-1.1v-1.2c0-0.2,0.2-0.3,0.3-0.3c0,0,0,0,0.1,0l8,1.3l8-1.3
	c0.2,0,0.4,0.1,0.4,0.3c0,0,0,0,0,0.1L35.31,39.17z M34.11,36.47c0,0.1-0.1,0.2-0.3,0.3l-6.8,1.2c-0.1,0-0.2,0-0.3,0l-6.8-1.2
	c-0.1,0-0.2-0.1-0.3-0.3l-2.3-13c0-0.2,0.1-0.3,0.3-0.4l0.4-0.1l0,0c0,0,0.4-0.1,0.5,0.3l0,0l2.2,12.2c0,0.1,0.1,0.2,0.3,0.3l5.8,1
	c0.1,0,0.2,0,0.3,0l5.8-1c0.1,0,0.2-0.1,0.3-0.3l2.2-12.3c0-0.2,0.2-0.3,0.4-0.3l0.5,0.1c0.2,0,0.3,0.2,0.3,0.4L34.11,36.47z
	 M23.91,29.77c0-2.7,2.4-5.1,3-5.1s3,2.4,3,5.1c0,0.6-0.2,1.2-0.6,1.6c0.1-0.2,0.1-0.5,0.2-0.7c-0.1-1.8-1.1-3.4-2.6-4.3
	c-1.5,0.9-2.5,2.5-2.6,4.3c0.1,0.8,0.5,1.5,1.2,1.8c-0.2-0.2-0.3-0.5-0.3-0.8c0.2-1.3,0.7-2.5,1.6-3.5c0.1-0.1,0.2-0.1,0.2,0l0,0
	c0.8,1,1.3,2.1,1.6,3.3c0,0.5-0.2,1-0.6,1.4c-0.7,0.7-1.1,1.6-1.1,2.6l-4.9-0.8c-0.1,0-0.2-0.1-0.3-0.3l-1.8-10.2l0,0l-0.3-1.5
	l7.3-1.2c0,0,0.3,1-1.6,2.9S23.91,29.87,23.91,29.77z M37.11,21.97l-10.2-1.7l-10.2,1.7c-0.3,0.1-0.7-0.2-0.7-0.5v-0.1v-1
	c0-0.5,0.3-0.9,0.8-1l10.1-2.1l10.1,2.1c0.5,0.1,0.8,0.5,0.8,1v1C37.81,21.67,37.51,21.97,37.11,21.97L37.11,21.97z"/>
</svg>
